# xmcd CD database file
#
# Track frame offsets:
#	150
#	18438
#	36534
#	58024
#	73711
#	90087
#	110616
#	127439
#	140517
#	158071
#	176482
#	196056
#	215472
#	231835
#	252255
#	266240
#	287086
#	308574
#
# Disc length: 4416 seconds
#
# Revision: 0
# Processed by: cddbd v1.5.1PL2 Copyright (c) Steve Scherf et al.
# Submitted via: CDex 1.51
#
DISCID=0b113e12
DTITLE=Various Artist - Merengues De Los 70s Exitos Vol 1
DYEAR=1900
DGENRE=Merengue
TTITLE0=Platano Maduro
TTITLE1=El Pajaro Choui
TTITLE2=Cal Y Arena
TTITLE3=Se Fue La Luz
TTITLE4=La Protesta De Los Feos
TTITLE5=Pa Bochinchar
TTITLE6=Jiro Y Canelo
TTITLE7=Con Trujillo
TTITLE8=La Negra Pola
TTITLE9=Marisela
TTITLE10=La Varita
TTITLE11=Yo Te Vi
TTITLE12=El Lapiz
TTITLE13=Espanola
TTITLE14=Que Paso Papo
TTITLE15=Un Pie Aqui Y El Otro Alla
TTITLE16=Colegiala
TTITLE17=Sisi Y Ricardo
EXTD=
EXTT0=
EXTT1=
EXTT2=
EXTT3=
EXTT4=
EXTT5=
EXTT6=
EXTT7=
EXTT8=
EXTT9=
EXTT10=
EXTT11=
EXTT12=
EXTT13=
EXTT14=
EXTT15=
EXTT16=
EXTT17=
PLAYORDER=
